<?xml version="1.0" standalone="no"?>
<!DOCTYPE svg PUBLIC "-//W3C//DTD SVG 20010904//EN"
 "http://www.w3.org/TR/2001/REC-SVG-20010904/DTD/svg10.dtd">
<svg version="1.0" xmlns="http://www.w3.org/2000/svg"
 width="1120.000000pt" height="1120.000000pt" viewBox="0 0 1120.000000 1120.000000"
 preserveAspectRatio="xMidYMid meet">
<metadata>
Created by potrace 1.16, written by Peter Selinger 2001-2019
</metadata>
<g transform="translate(0.000000,1120.000000) scale(0.100000,-0.100000)"
fill="#000000" stroke="none">
<path d="M5170 11189 c-1186 -95 -2258 -533 -3182 -1301 -158 -132 -544 -518
-676 -676 -773 -930 -1210 -2005 -1302 -3201 -13 -174 -13 -648 0 -822 92
-1196 529 -2271 1302 -3201 132 -158 518 -544 676 -676 930 -773 2005 -1210
3201 -1302 174 -13 648 -13 822 0 1196 92 2271 529 3201 1302 158 132 544 518
676 676 773 930 1210 2005 1302 3201 5 74 10 259 10 411 0 152 -5 337 -10 411
-92 1196 -529 2271 -1302 3201 -132 158 -518 544 -676 676 -930 773 -2005
1210 -3201 1302 -156 12 -687 11 -841 -1z"/>
</g>
</svg>
